<svg xmlns="http://www.w3.org/2000/svg" viewBox="0 0 47.5 47.5"><defs><style>.cls-1{fill:#fff;stroke:#000;stroke-miterlimit:10;stroke-width:0.5px;}.cls-2{fill:#342d29;}</style></defs><g id="Layer_2" data-name="Layer 2"><g id="Layer_1-2" data-name="Layer 1"><circle class="cls-1" cx="23.75" cy="23.75" r="23.5"/><path class="cls-2" d="M9.51,30.71l-.88-.05-1.17,0-1.65,0q-.43,0-1.2,0s0-.05,0-.14,0-.13,0-.13a3.79,3.79,0,0,0,1-.11.7.7,0,0,0,.45-.44,2.94,2.94,0,0,0,.13-1V18.57a2.91,2.91,0,0,0-.13-1,.75.75,0,0,0-.44-.43,3.16,3.16,0,0,0-1-.12s-.06-.05-.06-.14,0-.13.06-.13l1.19,0c.68,0,1.22.05,1.62.05.61,0,1.23,0,1.87-.07l1.56-.05a8.75,8.75,0,0,1,4,.89A6.78,6.78,0,0,1,17.59,20a6.4,6.4,0,0,1,1,3.45,7.3,7.3,0,0,1-1,3.82,6.77,6.77,0,0,1-2.67,2.56,7.7,7.7,0,0,1-3.69.91C10.73,30.78,10.16,30.75,9.51,30.71Zm4-1.17a4.77,4.77,0,0,0,1.7-2.15A8.55,8.55,0,0,0,15.81,24a9.7,9.7,0,0,0-.58-3.44,5.62,5.62,0,0,0-1.65-2.44,3.75,3.75,0,0,0-2.47-.89,4.51,4.51,0,0,0-1.89.27,1.17,1.17,0,0,0-.51,1.14v10a1.5,1.5,0,0,0,.47,1.26,3.14,3.14,0,0,0,1.8.36A4.48,4.48,0,0,0,13.5,29.54Z"/><path class="cls-2" d="M26.61,28.79a2.78,2.78,0,0,0,.09.84.52.52,0,0,0,.35.34,2.7,2.7,0,0,0,.83.09h.76a4.91,4.91,0,0,0,3-.92,4.44,4.44,0,0,0,1.7-2.51s0,0,.09,0l.1,0s0,0,0,.06c-.13,1.47-.2,2.69-.2,3.67a.33.33,0,0,1-.08.26.34.34,0,0,1-.25.08H22.54s-.05-.05-.05-.14,0-.13.05-.13a3.58,3.58,0,0,0,1-.11.7.7,0,0,0,.45-.44,3,3,0,0,0,.12-1V18.57a3,3,0,0,0-.12-1,.76.76,0,0,0-.46-.43,3.2,3.2,0,0,0-1-.12s-.05-.05-.05-.14,0-.13.05-.13l1.13,0c.68,0,1.25.05,1.69.05s1,0,1.7-.05l1.13,0s.07,0,.07.13,0,.14-.07.14a3.2,3.2,0,0,0-1,.12.73.73,0,0,0-.45.44,3.48,3.48,0,0,0-.11,1Z"/><path class="cls-2" d="M41.4,29.89a.69.69,0,0,0,.43.42,3.66,3.66,0,0,0,1,.11s.06,0,.06.13,0,.14-.06.14c-.49,0-.88,0-1.16,0l-1.69,0-1.65,0q-.45,0-1.2,0s-.05-.05-.05-.14,0-.13.05-.13a3.71,3.71,0,0,0,1-.11.7.7,0,0,0,.46-.44,3,3,0,0,0,.12-1V18.57a3,3,0,0,0-.12-1,.73.73,0,0,0-.46-.43,3.3,3.3,0,0,0-1-.12s-.05-.05-.05-.14,0-.13.05-.13l1.2,0c.68,0,1.23.05,1.65.05s1,0,1.71-.05l1.14,0s.06,0,.06.13,0,.14-.06.14a3,3,0,0,0-1,.13.72.72,0,0,0-.44.46,3,3,0,0,0-.11,1V28.88A3.15,3.15,0,0,0,41.4,29.89Z"/></g></g></svg>