<svg xmlns="http://www.w3.org/2000/svg" viewBox="0 0 600 100"><path fill="#342d29" d="m57.584 4.938-4.869 4.171.01.158 2.99-.074-9.717 18.241a3.345 3.345 0 0 0-2.578.421 4.1 4.1 0 0 0-1.323 5.35 3.922 3.922 0 0 0 .465.679l-7.306 13.715-6.524-12.247-1.7 1.064 7.092 13.311-14.892 27.956a6.7 6.7 0 0 0-6.412.4 7.924 7.924 0 0 0-3.591 6.378L0 90.234l3.927 7.374 9.23-5.775a6.719 6.719 0 0 0 6.889-.185 7.856 7.856 0 0 0 3.53-5.81h29.78L60.899 100l1.7-1.064-6.976-13.1h14.753a4.141 4.141 0 0 0 .4 1.2 3.467 3.467 0 0 0 4.936 1.434 3.893 3.893 0 0 0 1.722-2.635h19.115l-1.559 2.792.122.066 5.766-2.483 6.029-1.436q-3.016-.721-6.029-1.438l-5.766-2.483-.122.087 1.555 2.771H77.276a3.96 3.96 0 0 0-.246-.59 3.463 3.463 0 0 0-4.934-1.432 3.809 3.809 0 0 0-1.561 2.022H54.493l-7.578-14.228 6.972-4.362-2.945-5.529-6.972 4.362-7.578-14.226 7.842-14.722a3.359 3.359 0 0 0 2.8-.368 4.1 4.1 0 0 0 1.321-5.348 3.815 3.815 0 0 0-.628-.847l9.689-18.19 1.453 2.858.112-.079.9-6.656q.931-3.189 1.865-6.378-2.082 2.473-4.162 4.94zM42.268 65.016l-6.972 4.362 2.945 5.529 6.972-4.362 7.011 13.164H23.566a8.263 8.263 0 0 0-.876-2.756 7.646 7.646 0 0 0-1.763-2.2l14.33-26.9z"/><text fill="#342d29" class="font-Cormorant-Garamond font-bold" font-size="56" letter-spacing=".1em" transform="translate(337 55)" style="font-family:'Cormorant Garamond',serif!important">
                <tspan x="-215.74" y="0">DLI SERVICES</tspan>
        </text><text fill="#342d29" class="font-Fira-Sans" font-size="9" letter-spacing=".6em" transform="translate(370 82.5)">
                <tspan x="-25.29" y="0">SINCE 1998</tspan>
        </text><text class="font-Cormorant-Garamond font-bold" font-size="12" font-weight="700" letter-spacing=".6em" transform="translate(260 70)" style="font-family:'Cormorant Garamond',serif!important">
                <tspan x="0" y="0">CUSTOM METALWORKS</tspan>
        </text></svg>